<svg clip-rule="evenodd" fill-rule="evenodd" height="40" stroke-linejoin="round" stroke-miterlimit="2" width="40" xmlns="http://www.w3.org/2000/svg"><circle cx="19.9992593" cy="20.00045833" fill="#c4397e" r="20.0005961" stroke-width="1.34503"/><g fill="#fff" fill-rule="nonzero" transform="matrix(.0275002 0 0 .0275002 9 9)"><path d="m579.221 0h-358.456c-121.73 0-220.765 99.04-220.765 220.77v358.455c0 121.735 99.035 220.77 220.765 220.77h358.456c121.739 0 220.774-99.04 220.774-220.77v-358.455c.005-121.73-99.035-220.77-220.774-220.77zm149.8 579.225c0 82.597-67.199 149.791-149.796 149.791h-358.46c-82.592.005-149.786-67.194-149.786-149.791v-358.455c0-82.592 67.194-149.791 149.786-149.791h358.456c82.596 0 149.795 67.199 149.795 149.791v358.455z"/><path d="m399.998 193.869c-113.667 0-206.139 92.472-206.139 206.138 0 113.662 92.472 206.129 206.139 206.129 113.666 0 206.138-92.467 206.138-206.129 0-113.666-92.472-206.138-206.138-206.138zm0 341.283c-74.524 0-135.159-60.626-135.159-135.15 0-74.528 60.63-135.159 135.159-135.159 74.528 0 135.159 60.631 135.159 135.159 0 74.524-60.636 135.15-135.159 135.15z"/><path d="m614.781 133.683c-13.675 0-27.109 5.536-36.767 15.237-9.705 9.653-15.284 23.092-15.284 36.814 0 13.68 5.584 27.114 15.284 36.815 9.653 9.653 23.092 15.237 36.767 15.237 13.723 0 27.115-5.584 36.815-15.237 9.701-9.701 15.237-23.139 15.237-36.815 0-13.722-5.536-27.161-15.237-36.814-9.653-9.701-23.092-15.237-36.815-15.237z"/></g></svg>