<svg clip-rule="evenodd" fill-rule="evenodd" height="40" stroke-linejoin="round" stroke-miterlimit="2" width="40" xmlns="http://www.w3.org/2000/svg"><circle cx="19.9992593" cy="20.00045833" fill="#0082fb" r="20.0005961" stroke-width="1.34503"/><path d="m34.394 18.501-5.7 4.22c-.61.46-1.44.46-2.04.01l-3.974-2.991c-1.68-1.25-4.06-.82-5.19.94l-1.21 1.89-4.11 6.68c-.6.94.55 2.01 1.44 1.34l5.7-4.22c.61-.46 1.44-.46 2.04-.01l3.974 2.991c1.68 1.25 4.06.82 5.19-.94l1.21-1.89 4.11-6.68c.6-.94-.55-2.01-1.44-1.34z" fill="#fff" fill-rule="nonzero" transform="matrix(.916797 0 0 .916797 -2.00496 -2.50324)"/></svg>