<svg clip-rule="evenodd" fill-rule="evenodd" height="40" stroke-linejoin="round" stroke-miterlimit="2" width="40" xmlns="http://www.w3.org/2000/svg"><circle cx="19.9992593" cy="20.00045833" fill="#6d68eb" r="20.0005961" stroke-width="1.34503"/><g fill="#fff" fill-rule="nonzero" transform="matrix(.05499984535 0 0 .05499984535 -1.99997103152 .05724163068)"><path d="m265.491 206.73c-6.192-.905-12.507.338-17.894 3.522h-.459c-12.507 7.331-23.774 16.597-33.382 27.453-7.984 9.231-12.315 18.572-13.453 27.563-.678 5.359-.219 10.718 1.378 15.837l.569.35c8.991 26.425 20.738 51.844 35.088 75.775 18.484 33.62 41.233 64.713 67.681 92.51l.787 1.137 1.247.92.788.916.918.79c27.898 26.524 59.064 49.38 92.751 68.007 38.5 20.957 61.863 30.867 75.883 34.98v.217c4.114 1.25 7.854 1.816 11.617 1.816 11.95-.876 23.263-5.726 32.133-13.78 10.807-9.61 19.97-20.923 27.127-33.49v-.22c6.713-12.643 4.44-24.61-5.25-32.703-19.41-16.963-40.393-32.03-62.673-44.997-14.92-8.093-30.077-3.193-36.224 5.01l-13.103 16.514c-6.717 8.203-18.923 7.066-18.923 7.066l-.35.22c-91.022-23.253-115.303-115.413-115.303-115.413s-1.138-12.533 7.284-18.922l16.406-13.212c7.854-6.388 13.323-21.525 4.9-36.466-12.875-22.309-27.91-43.3-44.887-62.672-3.712-4.567-8.919-7.674-14.7-8.772z"/><path d="m419.307 166.67c-9.204 0-16.667 7.462-16.667 16.666 0 9.205 7.463 16.667 16.667 16.667 42.15 0 77.173 13.777 104.843 40.158 14.243 14.447 25.33 31.547 32.61 50.26 7.307 18.783 10.63 38.812 9.777 58.876-.39 9.193 6.746 16.966 15.943 17.356 9.197.394 16.97-6.746 17.36-15.943 1.05-24.68-3.043-49.305-12.017-72.374-8.973-23.067-22.63-44.087-40.133-61.784l-.333-.32c-34.334-32.834-77.854-49.562-128.05-49.562z"/><path d="m418.173 221.481c-9.203 0-16.666 7.462-16.666 16.666 0 9.205 7.463 16.667 16.666 16.667h.544c30.416 2.143 52.546 12.281 68.063 28.923 15.883 17.138 24.11 38.426 23.5 64.766-.213 9.2 7.077 16.834 16.277 17.047 9.203.213 16.836-7.073 17.05-16.277.8-34.583-10.324-64.404-32.397-88.215l-.03-.031c-22.553-24.203-53.497-37.007-90.773-39.509l-.557-.037z"/><path d="m417.543 277.292c-9.193-.483-17.036 6.576-17.52 15.768-.483 9.192 6.577 17.036 15.767 17.52 13.957.734 22.85 4.92 28.443 10.568 5.62 5.672 9.82 14.755 10.587 28.995.497 9.194 8.347 16.244 17.54 15.747 9.19-.493 16.24-8.343 15.747-17.537-1.077-20-7.337-37.683-20.187-50.66-12.877-13.002-30.46-19.352-50.377-20.401z"/></g></svg>