<svg clip-rule="evenodd" fill-rule="evenodd" height="40" stroke-linejoin="round" stroke-miterlimit="2" width="40" xmlns="http://www.w3.org/2000/svg"><circle cx="19.9992593" cy="20.00045833" fill="#32d06b" r="20.0005961" stroke-width="1.34503"/><path d="m591.958 459.691c-1.558-.748-59.88-29.468-70.244-33.197-4.231-1.52-8.763-3.003-13.584-3.003-7.875 0-14.491 3.925-19.644 11.634-5.826 8.659-23.463 29.275-28.912 35.433-.712.813-1.683 1.785-2.265 1.785-.522 0-9.548-3.717-12.28-4.904-62.564-27.177-110.052-92.53-116.564-103.551-.93-1.584-.969-2.304-.977-2.304.229-.839 2.333-2.948 3.418-4.036 3.177-3.143 6.619-7.286 9.949-11.293 1.576-1.899 3.155-3.8 4.706-5.593 4.831-5.62 6.982-9.984 9.475-15.039l1.307-2.626c6.088-12.096.888-22.303-.792-25.6-1.38-2.758-26.006-62.192-28.624-68.436-6.296-15.067-14.615-22.083-26.176-22.083-1.073 0 0 0-4.499.19-5.478.231-35.309 4.158-48.499 12.472-13.987 8.818-37.649 36.928-37.649 86.361 0 44.491 28.234 86.499 40.356 102.476.301.402.854 1.22 1.657 2.394 46.423 67.798 104.296 118.042 162.964 141.478 56.48 22.561 83.225 25.169 98.431 25.169h.002c6.39 0 11.504-.501 16.016-.945l2.862-.273c19.512-1.73 62.39-23.948 72.143-51.052 7.683-21.348 9.709-44.673 4.597-53.138-3.501-5.755-9.535-8.652-17.174-12.319z" fill="#fff" fill-rule="nonzero" transform="matrix(.0547473 0 0 .0547473 -2.50262 -1.46905)"/></svg>